<svg xmlns="http://www.w3.org/2000/svg" viewBox="0 0 482 451" width="100%" height="100%">
  <path d="M 134.0,5.4 L 146.0,5.1 L 174.0,8.5 L 194.0,13.7 L 213.0,20.9 L 230.0,29.8 L 242.0,37.7 L 251.0,44.7 L 256.9,51.0 L 258.8,55.0 L 259.7,60.0 L 258.1,68.0 L 253.9,73.9 L 231.0,93.2 L 222.0,97.3 L 217.0,97.7 L 211.0,96.0 L 190.0,81.9 L 180.0,76.9 L 172.0,73.9 L 154.0,69.4 L 138.0,68.1 L 125.0,69.3 L 117.0,70.9 L 108.0,73.9 L 100.0,77.9 L 93.0,82.7 L 87.3,88.0 L 81.6,96.0 L 78.0,104.0 L 76.1,115.0 L 77.7,126.0 L 81.8,135.0 L 89.0,143.9 L 97.0,150.3 L 107.0,156.3 L 184.0,189.8 L 200.0,198.8 L 209.0,204.9 L 221.9,216.0 L 233.3,230.0 L 242.1,246.0 L 248.8,265.0 L 252.0,285.0 L 251.9,302.0 L 250.4,312.0 L 248.0,323.0 L 243.0,337.0 L 238.1,347.0 L 232.5,356.0 L 225.9,364.0 L 217.0,372.7 L 209.0,379.0 L 199.0,385.1 L 178.0,394.3 L 165.0,398.1 L 152.0,400.4 L 138.0,402.0 L 123.0,402.0 L 111.0,400.7 L 88.0,396.9 L 66.0,390.2 L 44.0,380.2 L 23.0,366.9 L 14.0,359.7 L 9.4,355.0 L 6.3,350.0 L 5.1,345.0 L 6.5,338.0 L 11.2,331.4 L 35.0,311.9 L 39.0,309.5 L 43.0,308.3 L 48.0,308.5 L 54.0,310.4 L 74.0,324.1 L 93.0,333.2 L 109.0,337.8 L 126.0,340.0 L 138.0,339.9 L 148.0,338.5 L 157.0,336.3 L 164.0,333.3 L 171.0,329.2 L 178.0,323.0 L 182.9,317.0 L 186.4,310.0 L 189.8,296.0 L 188.3,285.0 L 183.9,274.0 L 176.0,264.0 L 166.0,255.7 L 150.0,245.8 L 129.0,235.9 L 71.0,210.6 L 59.0,203.9 L 52.0,199.1 L 38.1,187.0 L 26.7,172.0 L 18.8,156.0 L 14.3,140.0 L 12.0,119.0 L 13.6,104.0 L 16.1,92.0 L 20.9,78.0 L 26.8,66.0 L 31.7,58.0 L 39.3,48.0 L 50.0,37.2 L 59.0,30.1 L 70.0,23.0 L 80.0,17.9 L 94.0,12.5 L 106.0,9.1 L 122.0,6.3 L 133.0,5.6 Z" fill="#EA8528" />
  <path d="M 360.0,85.7 L 375.0,86.3 L 395.0,90.1 L 410.0,94.8 L 428.0,102.8 L 446.0,113.7 L 459.0,124.1 L 473.3,139.0 L 476.3,144.0 L 476.9,148.0 L 475.6,153.0 L 471.9,157.1 L 444.0,175.5 L 440.0,177.4 L 436.0,177.9 L 432.0,177.0 L 429.0,175.4 L 416.0,163.3 L 407.0,156.4 L 397.0,150.7 L 387.0,146.4 L 375.0,143.0 L 362.0,141.1 L 351.0,141.1 L 337.0,143.1 L 327.0,145.7 L 317.0,149.8 L 306.0,155.9 L 297.0,162.5 L 289.0,170.0 L 282.2,178.0 L 275.0,189.0 L 271.0,197.0 L 264.2,218.0 L 262.2,236.0 L 264.9,257.0 L 270.8,273.0 L 276.7,284.0 L 287.2,298.0 L 352.0,364.4 L 356.0,365.6 L 361.0,362.9 L 426.0,296.0 L 432.0,291.6 L 438.0,290.8 L 444.0,293.1 L 468.9,309.9 L 472.0,313.1 L 473.4,316.0 L 473.6,322.0 L 469.9,328.0 L 412.0,387.0 L 364.0,439.0 L 358.4,444.4 L 355.8,445.4 L 353.0,444.4 L 348.0,440.0 L 258.6,343.0 L 257.7,341.0 L 257.8,338.0 L 263.8,317.0 L 266.0,301.0 L 265.8,282.0 L 261.9,260.0 L 256.1,243.0 L 246.5,225.0 L 236.7,212.0 L 226.0,201.0 L 217.3,193.4 L 215.8,189.9 L 217.7,183.0 L 221.8,173.0 L 229.0,159.0 L 236.1,148.0 L 251.0,130.0 L 259.0,122.6 L 271.0,113.1 L 282.0,105.9 L 294.0,99.7 L 315.0,91.6 L 329.0,88.2 L 341.0,86.3 L 359.0,85.7 Z" fill="#FFFFFF" />
  <circle cx="359.0" cy="235.6" r="34.5" fill="#EA8528" />
</svg>